<?xml version="1.0" encoding="UTF-8"?>
<svg xmlns="http://www.w3.org/2000/svg" width="362.0pt" height="361.0pt" viewBox="29.0 118.0 362.0 361.0">
<path fill-rule="nonzero" fill="rgb(92.939758%, 10.978699%, 14.118958%)" fill-opacity="1" d="M 389.753906 298.636719 C 389.753906 397.925781 309.261719 478.417969 209.972656 478.417969 C 110.683594 478.417969 30.191406 397.925781 30.191406 298.636719 C 30.191406 199.34375 110.683594 118.855469 209.972656 118.855469 C 309.261719 118.855469 389.753906 199.34375 389.753906 298.636719 Z M 389.753906 298.636719 "/>
<path fill-rule="nonzero" fill="rgb(100%, 100%, 100%)" fill-opacity="1" d="M 121.746094 130.175781 L 159.230469 135.59375 L 166.246094 149.828125 L 163.238281 150.226562 L 155.421875 139.605469 L 145.800781 139.804688 L 146.800781 167.453125 L 155.21875 165.0625 L 157.425781 173.28125 L 147.605469 174.683594 L 147.203125 197.734375 L 157.226562 197.933594 L 156.625 200.339844 L 126.355469 201.945312 L 126.957031 199.539062 L 133.773438 198.335938 L 130.964844 140.207031 L 123.75 139.804688 Z M 121.746094 130.175781 "/>
<path fill-rule="nonzero" fill="rgb(100%, 100%, 100%)" fill-opacity="1" d="M 169.269531 142.347656 L 197.132812 149.164062 L 195.726562 151.769531 L 191.917969 150.964844 L 181.296875 194.261719 L 187.910156 196.46875 L 187.109375 199.476562 L 160.449219 191.65625 L 161.25 189.050781 L 167.265625 190.253906 L 176.484375 149.164062 L 167.867188 144.953125 Z M 169.269531 142.347656 "/>
<path fill-rule="nonzero" fill="rgb(100%, 100%, 100%)" fill-opacity="1" d="M 197.140625 177.535156 L 220.773438 163.457031 L 221.753906 165.945312 L 212.472656 173.011719 L 216.949219 227.265625 L 222.699219 226.40625 L 238.699219 215.496094 L 236.34375 228.214844 L 207.3125 231.953125 L 200.929688 235.339844 Z M 197.140625 177.535156 "/>
<path fill-rule="nonzero" fill="rgb(100%, 100%, 100%)" fill-opacity="1" d="M 225.820312 127.007812 L 283.980469 127.171875 L 287.003906 142.507812 L 262.699219 136.332031 L 254.5 159.394531 L 269.558594 159.277344 L 267.425781 167.835938 L 253.179688 165.820312 L 245.277344 188.601562 L 276.011719 186.628906 L 270.71875 197.402344 L 242.179688 192.785156 L 229.246094 191.460938 L 241.800781 132.113281 L 231.058594 130.789062 Z M 225.820312 127.007812 "/>
<path fill-rule="nonzero" fill="rgb(100%, 100%, 100%)" fill-opacity="1" d="M 41.714844 214.78125 L 73.46875 220.070312 C 65.910156 246.34375 74.792969 267.835938 90.101562 263.488281 C 105.414062 259.140625 103.144531 251.015625 102.578125 245.34375 C 102.011719 239.671875 100.742188 229.761719 97.71875 227.304688 C 97.339844 227.304688 109.246094 218.988281 109.246094 218.988281 L 112.027344 223.417969 L 105.601562 227.953125 C 110.515625 242.886719 114.671875 258.199219 99.554688 268.96875 C 84.433594 279.742188 71.203125 274.828125 66.097656 271.804688 C 60.996094 268.78125 45.683594 257.816406 55.890625 226.066406 C 55.703125 226.066406 40.960938 223.609375 40.960938 223.609375 Z M 41.714844 214.78125 "/>
<path fill-rule="nonzero" fill="rgb(100%, 100%, 100%)" fill-opacity="1" d="M 116.332031 241.394531 L 116.898438 237.238281 L 141.847656 238.75 L 153.1875 264.453125 L 163.207031 233.457031 L 189.476562 221.925781 L 189.476562 225.328125 L 179.648438 229.675781 L 166.039062 297.71875 L 140.714844 245.175781 L 135.800781 295.074219 L 101.964844 295.449219 L 102.910156 291.480469 L 113.117188 291.292969 L 120.488281 241.960938 Z M 116.332031 241.394531 "/>
<path fill-rule="nonzero" fill="rgb(100%, 100%, 100%)" fill-opacity="1" d="M 236.765625 267.929688 C 233.554688 262.636719 216.351562 237.6875 177.039062 267.738281 C 177.039062 267.738281 178.742188 271.707031 178.929688 271.898438 C 179.875 269.628906 181.953125 267.929688 186.488281 266.226562 C 186.488281 265.660156 198.019531 305.539062 198.019531 305.539062 C 198.019531 305.539062 192.160156 305.539062 188.003906 304.21875 C 188.003906 304.21875 188.003906 309.511719 187.8125 309.699219 C 241.113281 322.929688 239.980469 273.21875 236.765625 267.929688 M 202.367188 304.21875 C 201.988281 304.785156 189.890625 264.902344 189.890625 264.902344 C 206.527344 257.34375 217.109375 271.328125 219.757812 276.433594 C 222.402344 281.535156 222.210938 297.980469 202.367188 304.21875 Z M 202.367188 304.21875 "/>
<path fill-rule="nonzero" fill="rgb(100%, 100%, 100%)" fill-opacity="1" d="M 250.769531 225.878906 L 302.9375 230.035156 L 305.960938 241.375 L 285.546875 234.570312 L 275.152344 258.007812 L 282.523438 259.144531 L 281.390625 266.703125 L 273.828125 264.4375 L 263.8125 288.441406 L 291.972656 287.492188 L 286.683594 298.269531 L 258.140625 291.652344 L 243.210938 290.332031 L 257.765625 230.980469 L 250.015625 229.65625 Z M 250.769531 225.878906 "/>
<path fill-rule="nonzero" fill="rgb(100%, 100%, 100%)" fill-opacity="1" d="M 357.675781 320.726562 L 347.472656 323.75 L 331.59375 281.03125 C 331.59375 281.03125 344.066406 274.796875 344.257812 274.796875 C 360.132812 265.910156 353.328125 256.460938 350.683594 252.492188 C 348.039062 248.523438 339.910156 237.371094 324.035156 244.742188 L 294.734375 260.621094 L 295.304688 267.640625 L 303.429688 263.722656 L 300.597656 305.980469 L 285.097656 314.109375 L 285.097656 320.347656 L 319.117188 304.847656 L 320.632812 285.378906 L 345.582031 331.308594 L 359 322.804688 L 357.675781 320.726562 M 326.679688 248.089844 C 336.886719 245.257812 337.832031 261.699219 337.832031 261.699219 C 337.832031 261.699219 338.019531 275.5 322.898438 278.332031 C 323.464844 278.710938 326.679688 248.089844 326.679688 248.089844 Z M 326.679688 248.089844 "/>
<path fill-rule="nonzero" fill="rgb(100%, 100%, 100%)" fill-opacity="1" d="M 141.691406 329.1875 L 164.726562 319.835938 L 167.007812 323.484375 L 142.375 340.136719 C 124.585938 319.835938 109.304688 314.816406 97.671875 328.503906 C 86.039062 342.1875 89.917969 360.890625 105.882812 364.765625 C 121.847656 368.644531 150.519531 364.316406 149.445312 393.277344 C 148.761719 411.753906 126.636719 421.789062 109.761719 423.613281 C 92.882812 425.4375 77.601562 415.628906 77.601562 415.628906 L 59.808594 440.488281 L 54.335938 437.070312 L 73.722656 405.820312 C 90.828125 415.855469 115.234375 420.191406 120.25 400.804688 C 125.269531 381.417969 108.390625 373.203125 103.144531 372.066406 C 97.902344 370.925781 67.792969 366.59375 65.285156 347.207031 C 62.777344 327.820312 71.808594 311.289062 93.109375 308.429688 C 118.753906 304.992188 130.742188 315.503906 141.691406 329.1875 Z M 141.691406 329.1875 "/>
<path fill-rule="nonzero" fill="rgb(100%, 100%, 100%)" fill-opacity="1" d="M 144.714844 358.136719 L 194.433594 344.679688 L 190.789062 383.90625 L 227.734375 338.292969 L 246.894531 355.625 L 243.703125 359.046875 L 230.242188 348.101562 L 202.417969 391.890625 L 237.542969 445.945312 L 245.980469 440.929688 L 248.71875 444.578125 L 236.628906 455.527344 L 197.855469 398.734375 L 188.960938 408.085938 L 175.683594 475.753906 L 140.332031 473.703125 L 139.875 467.542969 L 155.382812 465.945312 L 160.453125 362.011719 L 146.082031 365.433594 Z M 144.714844 358.136719 "/>
<path fill-rule="nonzero" fill="rgb(100%, 100%, 100%)" fill-opacity="1" d="M 372.199219 402.929688 L 343.914062 408.976562 L 314.492188 318.308594 L 246.261719 397.847656 L 231.015625 369.855469 L 225.769531 371.226562 L 256.789062 436 L 291.511719 378.113281 L 327.355469 376.917969 L 344.808594 429.476562 L 374.019531 405.664062 L 372.199219 402.929688 M 293.054688 361.238281 L 312.648438 330.414062 L 323.199219 363.761719 Z M 293.054688 361.238281 "/>
</svg>
